<svg xmlns="http://www.w3.org/2000/svg" width="134.591" height="69.435" viewBox="0 0 134.591 69.435"><g transform="translate(-180 -17.783)"><g transform="translate(138.817 -21.302)"><g transform="translate(41.182 39.084)"><path d="M74.794,72.821a2.436,2.436,0,0,1,.165,1.233c-.092.424.267.677.772.558.825-.194,1.637-.444,2.457-.662.41-.11.925-.272,1.207.03s-.084.722-.2,1.081a3.031,3.031,0,0,1-.953,1.691,7,7,0,0,0-1.725,2.13,1.514,1.514,0,0,1-.839.6,3.389,3.389,0,0,0-1.148.644c-.58.427-.82,1.12-1.314,1.614-.327.326-.575.738-.923,1.036a1.981,1.981,0,0,0-.732,2.015,9.677,9.677,0,0,1,.394,1.908c-.043,1.415.029,2.81-1.262,3.878A8.5,8.5,0,0,0,68.8,92.339a1.025,1.025,0,0,0-.231,1.012.27.27,0,0,1,.007.057c.249,1.537.252,1.547-1.256,1.939-.439.114-.6.311-.393.738a1.153,1.153,0,0,1-.409,1.568c-.939.736-1.623,1.767-2.744,2.3a2.51,2.51,0,0,1-1.62.287,2.973,2.973,0,0,0-2.072.345,1.252,1.252,0,0,1-2-1.162,5.04,5.04,0,0,0-1.028-3.246A.97.97,0,0,1,57.078,95a1.619,1.619,0,0,0-.175-2.059,6.442,6.442,0,0,1-1.348-4.161,2.764,2.764,0,0,1,1.03-2.123.753.753,0,0,0,.275-1.009,3.4,3.4,0,0,1-.171-1.584,8.74,8.74,0,0,0-.833-3.449.314.314,0,0,0-.146-.174c-.866-.338-.834-.905-.533-1.659.2-.509.184-1.093.659-1.5a.429.429,0,0,0-.078-.7c-.23-.169-.373-.613-.8-.328a1.539,1.539,0,0,1-.874.259.735.735,0,0,1-.839-.627c-.21-1.175-1.1-1.427-2.072-1.39-.543.021-.8.46-1.121.757a1.125,1.125,0,0,1-1,.274,11.073,11.073,0,0,0-1.843-.206.807.807,0,0,0-.705.315c-.32.459-.585.454-1.012.072A6.018,6.018,0,0,1,43.7,72.713a1.57,1.57,0,0,0-1.026-1.156,4.978,4.978,0,0,1-.67-.344c-.774-.428-.813-.519-.649-1.38.025-.131.074-.307.013-.4-.468-.7.075-1.154.429-1.576a2.179,2.179,0,0,0,.432-2.115,2.185,2.185,0,0,1,.324-2.121,6.186,6.186,0,0,0,.714-1.451,1.946,1.946,0,0,1,1.27-1.178c.166-.05.321-.144.489-.178a1.486,1.486,0,0,0,1.348-1.46A1.974,1.974,0,0,1,47.648,57.7c.507-.216.908-.817,1.48-.712a6.8,6.8,0,0,0,3.422-.574,4.894,4.894,0,0,1,2.222-.254,8.671,8.671,0,0,0,2.425.021,1.276,1.276,0,0,1,1.535,1.2c.039.374-.048.609-.485.583-.2-.012-.455-.07-.531.214-.069.258.16.358.306.508a3.75,3.75,0,0,0,1.906,1.037,1.96,1.96,0,0,1,.947.51,12.9,12.9,0,0,0,1.768.966c.214.146.374-.027.5-.169a4.325,4.325,0,0,0,.51-.7.873.873,0,0,1,1.289-.428c0-.744,0-1.442,0-2.14-1.155.446-1.191.434-1.2-.818a4.5,4.5,0,0,0-1.4-3.237c-.627-.631-1.253-1.264-1.9-1.876-.209-.2-.493-.526-.78-.208-.237.263.014.541.246.735.3.254.417.757.671.893.425.229.778.542,1.179.791a4.428,4.428,0,0,1,1.123.918c-.785.207-.781.207-.68,1.074.023.195.185.471-.089.56a.546.546,0,0,1-.659-.348.7.7,0,0,1-.095-.209A2.2,2.2,0,0,0,59.723,54.2a2.373,2.373,0,0,1-1.4-1.453c-.14-.4-.455-.607-.865-.336a1.964,1.964,0,0,1-2.178.157c-.356-.194-.489.075-.57.349-.149.5-.368.884-1,.8-.269-.034-.427.239-.643.357s-.309.414-.658.387c-.2-.016-.25.237-.143.444.076.146.108.288-.063.406-.633.433-1.214.991-2.08.85a.57.57,0,0,0-.611.323c-.234.351-.547.335-.717-.052a.93.93,0,0,0-1.021-.652c-.591.039-.62-.565-.869-.893a.554.554,0,0,1,.166-.774.882.882,0,0,0,.263-.842c-.108-1.619.075-1.8,1.676-1.637.614.064,1.223.185,1.831.295.436.079.784.056.992-.436.328-.778.332-1.243-.089-1.6a3.191,3.191,0,0,0-1.236-.616c-.122-.034-.3-.069-.277-.242s.19-.174.317-.191a22.705,22.705,0,0,1,2.959-.492c.309,0,.483-.191.522-.58a1.79,1.79,0,0,1-1.46.038c-.5-.156-1.019-.45-1.524.012-.057.052-.2.056-.2-.006,0-.636-.506-.409-.818-.485-.388-.1-.313-.256-.1-.468a9.487,9.487,0,0,1,1.615-1.234,11.037,11.037,0,0,0-1.475-.828,6.753,6.753,0,0,0,.007.885.878.878,0,0,1-.7,1.038,2.6,2.6,0,0,1-1.331.332c-.543-.094-.719-.451-.451-.933.028-.05.087-.114.074-.151-.391-1.068.708-.986,1.122-1.415.274-.284.7.032,1.069-.046a6.042,6.042,0,0,1-.429-.89c-.144-.48.076-.71.557-.6a.6.6,0,0,0,.625-.172.684.684,0,0,1,.934-.118,5.576,5.576,0,0,0,1.406.322c.181.05.42.076.473.286s-.127.368-.291.459c-.6.335-.6.717-.195,1.232a4.831,4.831,0,0,0,.851,1.013,2.26,2.26,0,0,1,.593.778c.093.168-.107.495.212.5.294.008.629.082.879-.181.013-.014.029-.025.043-.039a2.379,2.379,0,0,1,2.658-.726,1.339,1.339,0,0,1-.251-1.5,1.212,1.212,0,0,1,1.3-.493.267.267,0,0,1,.149.38,1.547,1.547,0,0,0-.089.685.657.657,0,0,0,.657.642,27.035,27.035,0,0,0,2.83-.021,5.853,5.853,0,0,1,1.31.182c.344.1.454.017.607-.391.512-1.365.175-2.757.3-4.128.043-.479-.2-.513-.543-.42a1.818,1.818,0,0,0-.527.229c-.506.337-.483.561.068.826.606.291.649.54.147,1.021-.413.4-.9.7-1,1.36-.043.293-.4.41-.693.445-.689.083-1.38.149-2.07.22-.331.034-.494-.126-.417-.444.143-.588-.216-1.09-.25-1.645-.006-.1-.056-.194-.181-.18a.351.351,0,0,0-.319.216c-.065.213-.006.5-.3.567a2.626,2.626,0,0,1-1.1-.019,1.217,1.217,0,0,1-1.051-1.2,3.219,3.219,0,0,0-.109-.971.545.545,0,0,1,.087-.546,3.782,3.782,0,0,1,2.4-1.582,5.319,5.319,0,0,0,1.619-.431,1.187,1.187,0,0,1,.562-.1,41.378,41.378,0,0,1,14.179,2.651,32.233,32.233,0,0,1,5.854,3.118,36.6,36.6,0,0,1,8.581,7.9,29.117,29.117,0,0,1,6.25,14.182,21.838,21.838,0,0,1,.18,5.1c-.017.164.016.331-.131.483-.43.443-.316.443-.269.974a3.112,3.112,0,0,1-.237,2.149c-.478.7-.987,1.385-1.488,2.073a.441.441,0,0,1-.492.211c-.221-.045-.321-.173-.313-.35.081-1.645-1.012-2.92-1.381-4.426a7.277,7.277,0,0,1-.327-3.357A1.264,1.264,0,0,0,91.7,69.1c-.042,0-.087-.02-.115-.006-1.016.52-1.476.224-1.413-.934.02-.363-.014-.679-.414-.782-.368-.1-.478-.336-.587-.674a6.186,6.186,0,0,0-5.378-4.519,6.636,6.636,0,0,0-3.325.474c-.257.094-.437.177-.721-.062-.373-.314-.66.137-.707.377a2.975,2.975,0,0,1-.9,1.363,6.517,6.517,0,0,0-.587,7.565c.181.292.189.4-.168.56a3.393,3.393,0,0,1-1.851.509.783.783,0,0,1-.6-.287c-.063-.459-.147-.916-.183-1.377a4.418,4.418,0,0,0-1.139-2.99,2.873,2.873,0,0,1-.7-1.495c-.128-.53-.075-1.123-.607-1.492a.376.376,0,0,1-.1-.264,8.307,8.307,0,0,0-.525-1.641c-.1-.4-.482-.248-.74-.186-.35.084-.086.326-.036.457a7.974,7.974,0,0,1,.549,4.11,1.688,1.688,0,0,0,.662,1.673c.345.29.9.428,1.034.843a12.557,12.557,0,0,0,1.636,2.5" transform="translate(-41.182 -39.084)" fill="#fff"></path><path d="M281.513,310.963,269.365,317.1c.106-.653.181-1.21.291-1.76.062-.309-.01-.439-.336-.4a3.244,3.244,0,0,1-.406,0H181.366c-.7,0-.7,0-.595-.7.15-1.013.312-2.026.441-3.042.038-.3.158-.4.44-.365a3.536,3.536,0,0,0,.406,0h99.433l.02.122" transform="translate(-148.286 -247.665)" fill="#fff"></path><path d="M197.905,232.353c-.216-2.873.442-5.652.846-8.459.056-.387.205-.453.548-.449,1.374.017,2.748.019,4.122,0,.362-.005.447.07.386.445-.539,3.318-1.053,6.641-1.579,9.961-.284,1.794-.587,3.585-.852,5.381-.049.334-.176.4-.478.4-1.355-.013-2.71-.026-4.064.006a.74.74,0,0,1-.818-.521c-1.089-2.473-2.206-4.935-3.315-7.4-.086-.19-.183-.375-.275-.561-.227.07-.143.235-.14.346.078,2.653-.613,5.214-.936,7.818-.032.256-.164.308-.39.308-1.452-.005-2.9-.01-4.355,0-.325,0-.316-.131-.274-.388.367-2.27.717-4.542,1.076-6.813.45-2.844.913-5.685,1.344-8.531.057-.378.195-.459.544-.454,1.354.018,2.71.023,4.064,0a.644.644,0,0,1,.719.47c1.127,2.667,2.282,5.322,3.429,7.981.072.168.155.331.233.5l.162-.036" transform="translate(-152.577 -180.588)" fill="#fff"></path><path d="M424.012,252.123c-.162,1.031-.337,2.06-.478,3.093-.049.357-.178.485-.552.475-1.025-.026-2.052-.028-3.078,0-.411.011-.484-.132-.424-.5q.734-4.521,1.449-9.045c.04-.248.075-.5.12-.744.187-1.032.188-1.032,1.266-1.032h3.892a7.124,7.124,0,0,1,1.329.11,3.1,3.1,0,0,1,2.7,4.1,3.16,3.16,0,0,1-2.115,2.477c-.163.059-.32.132-.495.2,1,1.2,1.438,2.688,2.256,3.99.23-.109.274-.353.372-.546q2.506-4.934,4.992-9.879a.7.7,0,0,1,.741-.473c1.2.029,2.4.026,3.6,0,.367-.008.5.115.565.466q1.008,5.177,2.054,10.346c.089.44-.031.524-.441.516-1.1-.023-2.208-.035-3.31.005-.445.016-.553-.154-.6-.543-.1-.881-.116-.879-1-.879-.561,0-1.124.023-1.684-.008a.584.584,0,0,0-.678.45c-.363.974-.381.967-1.406.967-2.419,0-4.837-.01-7.256.01a.59.59,0,0,1-.689-.492c-.316-1.03-.683-2.045-1.03-3.066l-.1-.013m11.83-.532c.484,0,.906-.006,1.327,0,.205,0,.327-.035.305-.283-.089-1.038-.168-2.077-.25-3.116l-.1-.018-1.285,3.415m-10.963-2.208c.951-.041,1.428-.507,1.347-1.266-.07-.659-.607-.583-1.046-.661-.46-.082-.481.227-.514.553a5.428,5.428,0,0,1-.157.909c-.114.41.039.53.37.464" transform="translate(-331.532 -196.645)" fill="#fff"></path><path d="M525.876,249.8a29.608,29.608,0,0,1-.579,5.328c-.052.43-.206.579-.653.563-.986-.036-1.975-.023-2.962,0-.337.006-.417-.073-.36-.421q.848-5.267,1.659-10.539c.039-.255.136-.364.409-.361,1.1.012,2.208.017,3.311,0,.31-.005.38.173.475.4q1.139,2.663,2.293,5.32a1.128,1.128,0,0,0,.26.5c.125-.017.094-.113.09-.177a28.7,28.7,0,0,1,.588-5.7c.04-.292.186-.331.427-.329,1.046.007,2.092.024,3.136-.008.427-.013.424.18.374.487q-.49,3.034-.97,6.07c-.221,1.393-.454,2.785-.648,4.183-.062.444-.209.616-.685.594-.927-.043-1.86-.044-2.787,0a.759.759,0,0,1-.846-.57c-.776-1.787-1.59-3.558-2.391-5.335l-.141.012" transform="translate(-409.702 -196.645)" fill="#fff"></path><path d="M254.285,255.686c.533-1.057,1.016-2.02,1.5-2.98,1.325-2.618,2.661-5.23,3.966-7.857a.737.737,0,0,1,.791-.483c1.179.026,2.36.023,3.54,0,.348-.006.512.087.582.444q1.019,5.229,2.069,10.453c.071.354-.024.432-.36.427-1.141-.015-2.283-.023-3.424,0-.394.009-.574-.11-.57-.5,0-.154-.033-.309-.028-.463.011-.341-.125-.472-.483-.46-.734.026-1.471.033-2.2,0-.386-.019-.537.143-.662.472-.362.951-.374.947-1.362.947Zm6.068-4.092c.506,0,.91,0,1.314,0,.181,0,.349.015.325-.261-.091-1.044-.17-2.089-.254-3.133l-.092-.027-1.292,3.421" transform="translate(-204.75 -196.649)" fill="#fff"></path><path d="M318.185,244.372c-.1.2-.15.318-.213.434q-2.844,5.214-5.682,10.431a.723.723,0,0,1-.76.456c-.87-.033-1.742-.02-2.612,0a.4.4,0,0,1-.472-.369q-1.2-5.281-2.416-10.557c-.073-.317.025-.4.337-.4q1.741.022,3.483,0c.316,0,.429.088.464.415.218,2.045.625,4.068.72,6.179.775-2.13,1.8-4.1,2.657-6.135a.626.626,0,0,1,.678-.465c1.237.028,2.475.01,3.815.01" transform="translate(-244.45 -196.645)" fill="#fff"></path><path d="M580.311,255.244a10.5,10.5,0,0,1-3.848-.839c-.305-.131-.411-.261-.211-.6q.712-1.195,1.349-2.433c.182-.355.308-.331.581-.094a3.688,3.688,0,0,0,1.921.888,1.768,1.768,0,0,0,1.121-.2.6.6,0,0,0,.346-.562c-.005-.305-.247-.387-.462-.443-.411-.108-.833-.17-1.25-.254-2.106-.428-2.936-1.937-2.12-3.927a5.271,5.271,0,0,1,4.111-3.132,6.213,6.213,0,0,1,4.168.582c.342.17.5.321.243.731-.421.669-.776,1.381-1.134,2.087-.147.289-.277.356-.557.15a3.433,3.433,0,0,0-1.665-.622,1.617,1.617,0,0,0-.743.085.613.613,0,0,0-.473.53c-.022.344.27.4.5.469.611.179,1.245.286,1.844.5a2.5,2.5,0,0,1,1.753,3.1,4.955,4.955,0,0,1-4.341,3.856,5.42,5.42,0,0,1-1.132.125" transform="translate(-451.799 -195.998)" fill="#fff"></path><path d="M387.667,244.384c1.3,0,2.594.008,3.891-.006.314,0,.443.039.373.409-.182.968-.331,1.943-.465,2.919-.039.283-.153.346-.412.329-.483-.031-.969-.017-1.45-.057-.329-.027-.462.047-.516.412-.318,2.14-.678,4.275-1.01,6.413-.138.888-.122.891-1.04.891H384.6c-.811,0-.8,0-.665-.827.345-2.136.662-4.277,1.029-6.41.081-.471-.072-.512-.456-.476-.423.04-.852.014-1.276.049-.336.028-.49-.007-.41-.421.181-.929.327-1.866.445-2.8.044-.354.179-.434.511-.429,1.3.018,2.594.007,3.891.007" transform="translate(-303.392 -196.657)" fill="#fff"></path><path d="M357.011,255.682c-.523,0-1.047-.02-1.568.007-.36.019-.473-.076-.412-.453.481-2.957.945-5.918,1.415-8.877.085-.535.2-1.066.258-1.6.037-.323.177-.4.483-.393,1.065.018,2.131.03,3.195,0,.458-.015.5.166.435.539-.374,2.289-.735,4.581-1.1,6.872-.179,1.126-.367,2.251-.524,3.381-.054.391-.177.577-.614.54-.519-.043-1.045-.01-1.568-.01" transform="translate(-282.065 -196.644)" fill="#fff"></path></g></g></g></svg>